<?xml version="1.0" encoding="utf-8"?>
<!-- Generator: Adobe Illustrator 15.1.0, SVG Export Plug-In . SVG Version: 6.00 Build 0)  -->
<!DOCTYPE svg PUBLIC "-//W3C//DTD SVG 1.1//EN" "http://www.w3.org/Graphics/SVG/1.1/DTD/svg11.dtd">
<svg version="1.1" id="Layer_1" xmlns="http://www.w3.org/2000/svg" xmlns:xlink="http://www.w3.org/1999/xlink" x="0px" y="0px"
	 width="100px" height="100px" viewBox="0 0 100 100" enable-background="new 0 0 100 100" xml:space="preserve">
<g>
	<g>
		<path fill="#EF474A" d="M85.68,0H13.74C5.88,0-0.49,6.328-0.49,14.136V85.6c0,7.809,6.37,14.137,14.23,14.137H85.68
			c7.857,0,14.229-6.328,14.229-14.137V14.136C99.908,6.328,93.536,0,85.68,0z M21.077,91.076c-7.346,0-13.301-5.916-13.301-13.213
			c0-7.298,5.955-13.213,13.301-13.213c7.346,0,13.301,5.915,13.301,13.213C34.378,85.16,28.423,91.076,21.077,91.076z
			 M21.263,35.215c-7.299,0-13.215-5.956-13.215-13.302c0-7.347,5.917-13.302,13.215-13.302c7.298,0,13.215,5.956,13.215,13.302
			C34.478,29.259,28.562,35.215,21.263,35.215z M77.029,91.35c-7.298,0-13.213-5.955-13.213-13.302
			c0-7.346,5.915-13.301,13.213-13.301c7.297,0,13.213,5.955,13.213,13.301C90.242,85.395,84.326,91.35,77.029,91.35z
			 M77.212,35.313c-7.347,0-13.302-5.917-13.302-13.215S69.865,8.883,77.212,8.883S90.514,14.8,90.514,22.098
			S84.559,35.313,77.212,35.313z"/>
	</g>
</g>
</svg>
