<?xml version="1.0" encoding="utf-8"?>
<!-- Generator: Adobe Illustrator 15.1.0, SVG Export Plug-In . SVG Version: 6.00 Build 0)  -->
<!DOCTYPE svg PUBLIC "-//W3C//DTD SVG 1.1//EN" "http://www.w3.org/Graphics/SVG/1.1/DTD/svg11.dtd">
<svg version="1.1" id="Layer_1" xmlns="http://www.w3.org/2000/svg" xmlns:xlink="http://www.w3.org/1999/xlink" x="0px" y="0px"
	 width="100px" height="100px" viewBox="0 0 100 100" enable-background="new 0 0 100 100" xml:space="preserve">
<g>
	<g>
		<path fill="#EF474A" d="M85.602-0.044H14.136C6.328-0.044,0,6.285,0,14.092v71.467c0,7.807,6.328,14.135,14.136,14.135h71.466
			c7.807,0,14.137-6.327,14.137-14.135h0.001V14.092C99.739,6.285,93.409-0.044,85.602-0.044z M21.424,91.033
			c-7.297,0-13.213-5.916-13.213-13.213c0-7.298,5.916-13.213,13.213-13.213s13.213,5.915,13.213,13.213
			C34.637,85.117,28.721,91.033,21.424,91.033z M21.425,35.268c-7.298,0-13.214-5.916-13.214-13.214
			c0-7.298,5.916-13.214,13.214-13.214s13.214,5.916,13.214,13.214C34.639,29.352,28.723,35.268,21.425,35.268z M49.308,62.486
			c-7.297,0-13.213-5.916-13.213-13.213S42.011,36.06,49.308,36.06s13.213,5.916,13.213,13.213S56.605,62.486,49.308,62.486z
			 M77.191,91.035c-7.298,0-13.213-5.916-13.213-13.213c0-7.298,5.915-13.213,13.213-13.213c7.297,0,13.213,5.915,13.213,13.213
			C90.404,85.119,84.488,91.035,77.191,91.035z M77.191,35.268c-7.297,0-13.213-5.916-13.213-13.214
			c0-7.298,5.916-13.214,13.213-13.214c7.299,0,13.215,5.916,13.215,13.214C90.406,29.352,84.49,35.268,77.191,35.268z"/>
	</g>
</g>
</svg>
