<?xml version="1.0" encoding="utf-8"?>
<!-- Generator: Adobe Illustrator 15.1.0, SVG Export Plug-In . SVG Version: 6.00 Build 0)  -->
<!DOCTYPE svg PUBLIC "-//W3C//DTD SVG 1.1//EN" "http://www.w3.org/Graphics/SVG/1.1/DTD/svg11.dtd">
<svg version="1.1" id="Layer_1" xmlns="http://www.w3.org/2000/svg" xmlns:xlink="http://www.w3.org/1999/xlink" x="0px" y="0px"
	 width="100px" height="100px" viewBox="0 0 100 100" enable-background="new 0 0 100 100" xml:space="preserve">
<g>
	<g>
		<path fill="#EF474A" d="M85.602-0.044H14.136C6.328-0.044,0,6.285,0,14.092v71.467c0,7.807,6.328,14.135,14.136,14.135h71.466
			c7.807,0,14.137-6.327,14.137-14.135h0.001V14.092C99.739,6.285,93.409-0.044,85.602-0.044z M21.424,91.033
			c-7.297,0-13.213-5.916-13.213-13.213c0-7.298,5.916-13.213,13.213-13.213s13.213,5.915,13.213,13.213
			C34.637,85.117,28.721,91.033,21.424,91.033z M21.424,34.783c-7.297,0-13.213-5.916-13.213-13.213S14.126,8.357,21.424,8.357
			s13.213,5.916,13.213,13.213S28.721,34.783,21.424,34.783z M49.308,91.033c-7.297,0-13.213-5.916-13.213-13.213
			c0-7.298,5.916-13.213,13.213-13.213s13.213,5.915,13.213,13.213C62.521,85.117,56.605,91.033,49.308,91.033z M49.308,34.784
			c-7.297,0-13.213-5.916-13.213-13.213S42.011,8.358,49.308,8.358s13.213,5.916,13.213,13.213S56.605,34.784,49.308,34.784z
			 M77.191,91.034c-7.297,0-13.213-5.917-13.213-13.214c0-7.299,5.916-13.215,13.213-13.215c7.299,0,13.215,5.916,13.215,13.215
			C90.406,85.117,84.49,91.034,77.191,91.034z M77.191,34.785c-7.297,0-13.213-5.916-13.213-13.214
			c0-7.298,5.916-13.214,13.213-13.214c7.299,0,13.215,5.916,13.215,13.214C90.406,28.869,84.49,34.785,77.191,34.785z"/>
	</g>
</g>
</svg>
